<svg width="91" height="103" viewBox="0 0 91 103" fill="none" xmlns="http://www.w3.org/2000/svg">
<path d="M80.5264 13.2071H70.9527V2.83558C70.9527 1.51921 69.8757 0.442169 68.5593 0.442169H60.5812C59.2649 0.442169 58.1878 1.51921 58.1878 2.83558V13.2071H32.6581V2.83558C32.6581 1.51921 31.581 0.442169 30.2646 0.442169H22.2866C20.9702 0.442169 19.8932 1.51921 19.8932 2.83558V13.2071H10.3195C5.03405 13.2071 0.74585 17.4953 0.74585 22.7807V92.9876C0.74585 98.273 5.03405 102.561 10.3195 102.561H80.5264C85.8118 102.561 90.1 98.273 90.1 92.9876V22.7807C90.1 17.4953 85.8118 13.2071 80.5264 13.2071ZM79.3297 92.9876H11.5162C10.858 92.9876 10.3195 92.449 10.3195 91.7908V32.3544H80.5264V91.7908C80.5264 92.449 79.9878 92.9876 79.3297 92.9876Z" fill="#7E3EFF"/>
</svg>
