<svg width="262" height="86" viewBox="0 0 262 86" fill="none" xmlns="http://www.w3.org/2000/svg">
<mask id="mask0_1231_5227" style="mask-type:alpha" maskUnits="userSpaceOnUse" x="0" y="0" width="262" height="86">
<rect width="262" height="86" fill="#D9D9D9"/>
</mask>
<g mask="url(#mask0_1231_5227)">
<path d="M74.3108 34.1902C71.1961 35.8985 68.9352 38.2696 67.1902 41.5742C65.3233 38.3163 63.0811 35.9172 59.6475 34.1902C62.9873 32.3885 65.4171 30.1947 67.0683 26.7407C68.9821 29.9707 71.2243 32.4071 74.3014 34.1995L74.3108 34.1902Z" fill="#62469C"/>
<path d="M72.1901 70.8586C68.7752 69.8784 65.4917 69.9624 61.9079 71.0733C62.9024 67.4512 63.0243 64.184 61.8235 60.5433C65.4635 61.6261 68.7471 61.7755 72.3683 60.4966C71.4302 64.1279 71.2801 67.4232 72.1901 70.8586Z" fill="#62469C"/>
<path d="M0 61.0659L0.112578 25.163V2.17993C4.66262 2.17993 8.35895 5.85797 8.34957 10.3855L8.25575 59.8617C8.25575 63.6517 9.57855 66.6483 12.2148 68.8327C14.851 71.0171 18.416 72.1187 22.8816 72.1187L41.4664 72.2307C41.4664 57.0798 41.4664 41.9382 41.4851 26.7873C46.0258 26.7873 49.7128 30.456 49.7128 34.9742V79.9135H21.3336C17.1494 79.9135 13.4625 79.1014 10.2915 77.5051C7.10182 75.9088 4.59695 73.6777 2.74879 70.8304C0.91939 67.9832 0 64.7439 0 61.0939V61.0752L0 61.0659Z" fill="#333132"/>
<path d="M157.375 72.4453H157.394V20.1406H149.147V72.4453V81.5284H157.403L157.394 72.4453" fill="#333132"/>
<path d="M193.964 72.4452H192.641C188.747 72.4452 185.755 72.1184 183.625 71.4183C181.495 70.7182 180.041 69.4953 179.225 67.7403C178.409 65.9853 178.015 63.4741 178.015 60.1881V34.9366H203.054C203.054 30.5118 199.536 26.9084 195.127 26.7404V26.7217H178.015V18.5908C178.015 14.054 174.319 10.3853 169.769 10.3853V61.2803C169.769 68.5057 171.598 73.4253 175.266 76.1045C178.944 78.7744 184.216 80.1093 191.102 80.1093H201.666C201.666 75.8805 198.223 72.4452 193.964 72.4452Z" fill="#333132"/>
<path d="M219.96 71.9041L252.345 37.4388C253.799 35.8331 254.606 33.7421 254.606 31.5857V26.7407H210.607C210.607 31.2776 214.303 34.9463 218.853 34.9463H243.714L212.455 68.1607C210.278 70.5691 209.068 73.7057 209.068 76.945V80.1096H247.898C252.458 80.1096 256.145 76.4316 256.145 71.9041H219.96Z" fill="#333132"/>
<path d="M125.195 26.5445C121.386 24.0894 116.883 22.8665 111.667 22.8665C103.899 22.8665 97.8482 25.7604 93.5139 31.5108V9.90932L93.3732 9.7693H93.5046C93.5046 5.24176 89.827 1.56372 85.2676 1.56372V80.1095H86.8061C90.5119 80.1095 93.5139 77.1222 93.5139 73.4348C95.6436 75.974 98.2422 77.9624 101.319 79.3907C104.397 80.8096 107.849 81.5377 111.658 81.5377C119.51 81.5377 125.693 78.9799 130.243 73.8736C134.793 68.7766 137.063 61.8313 137.063 53.0749C137.063 46.8764 136.031 41.5181 133.986 36.9812C131.941 32.4723 128.995 28.9903 125.186 26.5352L125.195 26.5445ZM124.135 68.3939C121.03 72.1839 116.94 74.0883 111.442 74.0883C105.944 74.0883 101.582 72.1839 98.3548 68.3939C95.1182 64.6038 93.5139 59.4882 93.5139 53.0749C93.5139 46.0736 95.1182 40.5285 98.3548 36.4397C101.591 32.351 106.095 30.3066 111.442 30.3066C116.79 30.3066 121.011 32.3416 124.135 36.4397C127.241 40.5379 128.798 46.0736 128.798 53.0749C128.798 59.4882 127.259 64.6132 124.135 68.3939Z" fill="#333132"/>
<path d="M149.167 11.9348V20.1404H157.404C157.404 15.6129 153.727 11.9348 149.167 11.9348Z" fill="#333132"/>
</g>
</svg>
